#!OML:ASF I:\Random Stuff\random\construction\7_22_03\Session 2\subj1.ASF
:FULLY-SPECIFIED
:DEGREES
460
root -2.28927 17.8523 4.32442 2.08757 64.8049 -5.98884
lowerback 6.78008 0.442678 -1.18962
upperback -0.340944 0.523082 0.621284
thorax -4.17336 0.293436 1.25741
lowerneck -22.8547 -2.66014 -1.31227
upperneck 34.9534 -3.41877 1.31951
head 16.4626 -1.19551 0.162324
rclavicle -1.51076e-014 -5.96354e-016
rhumerus -39.146 -30.5147 -55.2186
rradius 19.1351
rwrist 19.2211
rhand -10.7824 17.4564
rfingers 7.12502
rthumb 15.2301 -11.963
lclavicle -1.51076e-014 -5.96354e-016
lhumerus -29.3628 4.28721 80.2009
lradius 22.9858
lwrist 31.2307
lhand -17.3624 66.8727
lfingers 7.12502
lthumb -171.114 83.3343
rfemur -16.4108 8.14131 15.6878
rtibia 16.4592
rfoot -1.9207 -9.81178
rtoes -22.9196
lfemur -15.1288 -8.42623 -16.0616
ltibia 19.5625
lfoot -11.5304 10.4391
ltoes -25.8988
461
root -2.35406 17.8653 4.24101 1.47645 64.3167 -6.83874
lowerback 7.06295 0.408819 -1.06814
upperback -0.322649 0.493671 0.794313
thorax -4.31332 0.279256 1.37011
lowerneck -23.1581 -2.4785 -1.11414
upperneck 34.7599 -3.13049 1.02986
head 16.4195 -1.10179 0.0547682
rclavicle -4.80065e-014 -7.95139e-016
rhumerus -39.1509 -28.5122 -57.2862
rradius 20.3456
rwrist 17.7231
rhand -9.72922 16.8725
rfingers 7.12502
rthumb 16.2444 -12.467
lclavicle -4.80065e-014 -7.95139e-016
lhumerus -30.4914 5.96788 80.1507
lradius 22.8114
lwrist 31.4374
lhand -17.6031 66.7703
lfingers 7.12502
lthumb -171.347 83.4271
rfemur -16.843 8.81339 15.6792
rtibia 15.9794
rfoot -1.23945 -9.44259
rtoes -22.4576
lfemur -15.61 -8.15606 -15.7064
ltibia 19.6612
lfoot -11.3127 10.6064
ltoes -25.2499
462
root -2.41479 17.8725 4.15922 0.832374 63.7666 -7.75238
lowerback 7.18911 0.36932 -0.89327
upperback -0.264988 0.464611 0.988743
thorax -4.32376 0.26338 1.47599
lowerneck -23.2694 -2.25761 -0.957429
upperneck 34.2919 -2.82276 0.869796
head 16.1999 -0.992713 0.0174224
rclavicle 1.33683e-014 -3.97569e-015
rhumerus -39.1532 -27.4966 -58.6619
rradius 21.0685
rwrist 17.5439
rhand -9.15363 16.7271
rfingers 7.12502
rthumb 16.7986 -12.5662
lclavicle 1.33683e-014 -3.97569e-015
lhumerus -31.497 7.43379 80.1758
lradius 22.6701
lwrist 31.8784
lhand -17.7068 66.5373
lfingers 7.12502
lthumb -171.447 83.6559
rfemur -17.1845 9.34698 15.7635
rtibia 15.2823
rfoot -0.466023 -8.88504
rtoes -23.5959
lfemur -16.122 -8.14877 -15.2766
ltibia 19.8463
lfoot -11.1794 11.116
ltoes -24.5879
463
root -2.47339 17.8756 4.08074 0.186994 63.2116 -8.63608
lowerback 7.29293 0.322764 -0.689185
upperback -0.211233 0.428786 1.16944
thorax -4.3251 0.24341 1.55213
lowerneck -23.1827 -1.97753 -0.696411
upperneck 33.666 -2.45885 0.671663
head 15.8586 -0.854517 -0.0405613
rclavicle -1.2424e-014 -2.98177e-015
rhumerus -39.1596 -27.4081 -59.3841
rradius 21.3137
rwrist 18.199
rhand -8.67544 16.9878
rfingers 7.12502
rthumb 17.2588 -12.2658
lclavicle -1.2424e-014 -2.98177e-015
lhumerus -32.4631 8.51967 80.279
lradius 22.6178
lwrist 32.6109
lhand -17.445 66.7845
lfingers 7.12502
lthumb -171.194 83.4192
rfemur -17.3596 9.88844 15.8621
rtibia 14.482
rfoot 0.0418373 -8.36153
rtoes -24.1028
lfemur -16.5902 -8.2846 -14.827
ltibia 20.0615
lfoot -11.0938 11.8501
ltoes -24.2898
464
root -2.52708 17.8797 4.00767 -0.0755752 62.7402 -9.01341
lowerback 7.35872 0.252732 -0.677602
upperback -0.141061 0.341969 1.28297
thorax -4.28707 0.201212 1.67273
lowerneck -23.1914 -1.71017 -0.394196
upperneck 33.2671 -2.13138 0.481349
head 15.657 -0.718547 -0.109845
rclavicle 3.762e-014 1.31198e-014
rhumerus -39.0593 -27.5377 -59.9442
rradius 21.3074
rwrist 18.8831
rhand -8.63133 17.1428
rfingers 7.12502
rthumb 17.3013 -12.1071
lclavicle 3.762e-014 1.31198e-014
lhumerus -33.3957 8.98286 80.5731
lradius 22.7837
lwrist 33.6264
lhand -17.2274 66.0286
lfingers 7.12502
lthumb -170.984 84.184
rfemur -17.322 10.3095 15.7483
rtibia 13.7176
rfoot -0.107975 -7.88337
rtoes -23.1397
lfemur -16.9568 -8.16393 -14.6689
ltibia 20.2898
lfoot -11.0607 12.2875
ltoes -24.4146
465
root -2.57523 17.8824 3.94048 0.0758405 62.3306 -8.88287
lowerback 7.31304 0.230733 -0.840187
upperback -0.0363466 0.300859 1.33389
thorax -4.15234 0.183563 1.82144
lowerneck -23.0089 -1.60019 -0.417598
upperneck 32.7507 -2.00673 0.570674
head 15.3709 -0.668371 -0.0427351
rclavicle 6.57977e-014 -2.38542e-015
rhumerus -38.9486 -27.8667 -60.2217
rradius 21.1927
rwrist 19.331
rhand -8.79688 17.049
rfingers 7.12502
rthumb 17.142 -12.2149
lclavicle 6.57977e-014 -2.38542e-015
lhumerus -34.0363 8.88494 81.1323
lradius 22.9036
lwrist 34.5293
lhand -17.0396 66.4445
lfingers 7.12502
lthumb -170.803 83.7761
rfemur -17.2301 10.4554 15.4619
rtibia 13.2351
rfoot -1.11449 -7.22867
rtoes -22.5515
lfemur -17.2406 -8.00542 -14.7958
ltibia 20.4861
lfoot -11.002 12.5692
ltoes -25.111
466
root -2.63156 17.8811 3.87687 0.155752 61.9512 -8.86637
lowerback 7.2903 0.267543 -0.891156
upperback 0.011562 0.347103 1.36822
thorax -4.09213 0.207294 1.8807
lowerneck -23.2668 -1.50211 -0.149808
upperneck 32.63 -1.89657 0.334218
head 15.3646 -0.627697 -0.169766
rclavicle 3.5334e-014 2.62396e-014
rhumerus -38.99 -27.9394 -60.4834
rradius 21.2712
rwrist 19.1326
rhand -8.9896 16.8517
rfingers 7.12502
rthumb 16.9564 -12.4281
lclavicle 3.5334e-014 2.62396e-014
lhumerus -34.4463 8.24352 81.8609
lradius 22.9681
lwrist 35.1174
lhand -16.7035 66.856
lfingers 7.12502
lthumb -170.479 83.3791
rfemur -17.2964 10.3249 15.3697
rtibia 13.2821
rfoot -2.65187 -6.41408
rtoes -22.9785
lfemur -17.5638 -7.90428 -14.818
ltibia 20.5787
lfoot -10.8619 12.7906
ltoes -25.6975
467
root -2.69864 17.8786 3.81896 0.0300404 61.6748 -9.05138
lowerback 7.353 0.247134 -0.887846
upperback -0.0179795 0.322819 1.42474
thorax -4.15747 0.196508 1.94017
lowerneck -23.1538 -1.41072 -0.0285544
upperneck 32.4177 -1.80421 0.298133
head 15.2373 -0.583931 -0.186977
rclavicle 7.10655e-014 -3.08116e-014
rhumerus -39.0589 -27.6015 -60.9135
rradius 21.4462
rwrist 18.6097
rhand -9.25574 16.77
rfingers 7.12502
rthumb 16.7003 -12.5316
lclavicle 7.10655e-014 -3.08116e-014
lhumerus -34.7545 7.35662 82.5862
lradius 22.9513
lwrist 35.4256
lhand -16.3909 66.628
lfingers 7.12502
lthumb -170.177 83.6212
rfemur -17.3863 9.92429 15.5617
rtibia 13.9726
rfoot -4.32261 -5.83339
rtoes -23.1183
lfemur -17.8953 -7.65888 -14.7114
ltibia 20.6066
lfoot -10.7381 12.6361
ltoes -25.5277
468
root -2.77015 17.8778 3.76922 -0.0863355 61.5012 -9.117
lowerback 7.45467 0.204066 -0.951329
upperback -0.053056 0.261635 1.46285
thorax -4.24915 0.168856 2.0224
lowerneck -23.0224 -1.31393 0.0680758
upperneck 32.3095 -1.71844 0.340678
head 15.1566 -0.531709 -0.168102
rclavicle -7.90169e-015 5.96354e-016
rhumerus -39.1054 -27.325 -61.2564
rradius 21.4944
rwrist 18.3123
rhand -9.52882 16.8913
rfingers 7.12502
rthumb 16.4373 -12.4323
lclavicle -7.90169e-015 5.96354e-016
lhumerus -34.8288 6.43127 83.2533
lradius 22.7381
lwrist 35.2668
lhand -16.0677 66.1761
lfingers 7.12502
lthumb -169.865 84.088
rfemur -17.3368 9.27561 15.8625
rtibia 15.3077
rfoot -5.99759 -5.69311
rtoes -23.0956
lfemur -18.1253 -7.39244 -14.6629
ltibia 20.5966
lfoot -10.5532 12.2719
ltoes -24.4011
469
root -2.84449 17.8759 3.72345 -0.0727538 61.2947 -8.9456
lowerback 7.57137 0.219062 -1.03453
upperback -0.066031 0.272238 1.42792
thorax -4.32898 0.17616 2.03202
lowerneck -23.0652 -1.30383 0.0488165
upperneck 32.478 -1.76285 0.529409
head 15.248 -0.521177 -0.0943706
rclavicle -2.40529e-014 -2.0276e-014
rhumerus -39.1703 -27.2639 -61.4267
rradius 21.459
rwrist 18.2299
rhand -9.64165 16.9452
rfingers 7.12502
rthumb 16.3287 -12.3874
lclavicle -2.40529e-014 -2.0276e-014
lhumerus -34.7313 5.30374 83.8787
lradius 22.6474
lwrist 34.715
lhand -15.5595 66.0463
lfingers 7.12502
lthumb -169.375 84.2424
rfemur -17.2362 8.49855 16.1424
rtibia 17.3106
rfoot -7.00206 -6.07306
rtoes -20.8991
lfemur -18.2041 -7.23886 -14.7169
ltibia 20.4554
lfoot -10.1544 12.1542
ltoes -23.4987
470
root -2.92103 17.8731 3.67826 -0.0157254 61.0638 -8.65931
lowerback 7.67573 0.260233 -1.09423
upperback -0.0540182 0.318021 1.36079
thorax -4.37708 0.199632 1.99079
lowerneck -23.2261 -1.30613 -0.0174288
upperneck 32.7046 -1.83155 0.781341
head 15.3959 -0.516002 0.00922906
rclavicle -2.16178e-014 9.93923e-015
rhumerus -39.1871 -27.1835 -61.5536
rradius 21.4223
rwrist 18.2265
rhand -9.78833 16.8316
rfingers 7.12502
rthumb 16.1875 -12.5125
lclavicle -2.16178e-014 9.93923e-015
lhumerus -34.6092 3.86752 84.5509
lradius 22.9638
lwrist 34.2129
lhand -15.6247 66.214
lfingers 7.12502
lthumb -169.438 84.0714
rfemur -17.0814 7.73748 16.3843
rtibia 19.8282
rfoot -7.90366 -6.60904
rtoes -18.0867
lfemur -18.1394 -7.18087 -14.8249
ltibia 20.1462
lfoot -9.61123 12.2452
ltoes -23.6565
